<?xml version="1.0" encoding="utf-8"?>
<!-- Generator: Adobe Illustrator 21.1.0, SVG Export Plug-In . SVG Version: 6.00 Build 0)  -->
<svg version="1.1" id="Layer_1" xmlns="http://www.w3.org/2000/svg" xmlns:xlink="http://www.w3.org/1999/xlink" x="0px" y="0px"
	 viewBox="0 0 493.1 72.7" style="enable-background:new 0 0 493.1 72.7;" xml:space="preserve">
<style type="text/css">
	.st0{fill:#FFFFFF;}
</style>
<g>
	<g>
		<path class="st0" d="M234.5,19.7h14.7v7.4c3.4-4.4,7.8-8.3,15.3-8.3c6.8,0,11.9,3,14.6,8.2c4.5-5.3,10-8.2,17-8.2
			c10.9,0,17.5,6.6,17.5,19.1v33.8h-14.7V42.7c0-7-3.1-10.5-8.6-10.5c-5.5,0-8.9,3.6-8.9,10.5v28.9h-14.7V42.7
			c0-7-3.1-10.5-8.6-10.5c-5.5,0-8.9,3.6-8.9,10.5v28.9h-14.7V19.7z"/>
		<path class="st0" d="M322.3,55.7v-0.2c0-11.3,8.6-16.5,20.9-16.5c5.2,0,9,0.9,12.7,2.1v-0.9c0-6.1-3.8-9.5-11.1-9.5
			c-5.6,0-9.6,1.1-14.3,2.8l-3.7-11.2c5.7-2.5,11.3-4.2,20.1-4.2c8,0,13.8,2.1,17.5,5.8c3.9,3.9,5.6,9.6,5.6,16.5v30.1h-14.2V65
			c-3.6,4-8.5,6.6-15.7,6.6C330.4,71.6,322.3,66,322.3,55.7z M356.1,52.3v-2.6c-2.5-1.2-5.8-1.9-9.4-1.9c-6.3,0-10.2,2.5-10.2,7.2
			v0.2c0,4,3.3,6.3,8,6.3C351.4,61.4,356.1,57.7,356.1,52.3z"/>
		<path class="st0" d="M377.7,44.8v-0.2c0-17.3,11.3-26.8,23.6-26.8c7.8,0,12.7,3.6,16.2,7.7V0h14.7v70.6h-14.7v-7.4
			c-3.6,4.8-8.5,8.4-16.2,8.4C389.2,71.6,377.7,62.1,377.7,44.8z M417.6,44.8v-0.2c0-8.6-5.7-14.3-12.6-14.3s-12.7,5.6-12.7,14.3
			v0.2c0,8.6,5.8,14.3,12.7,14.3S417.6,53.4,417.6,44.8z"/>
		<path class="st0" d="M441.9,54l-0.1-0.2c-5.1-13.9,0.5-29,14.6-34.2c16.2-6,28.3,3.8,33.5,17.6c0.4,1.1,0.8,2.4,1.2,3.7
			l-33.8,12.6c3.7,5.8,9.2,7.4,15.4,5.1c4.6-1.7,7.4-4.4,9.9-9.4l10.5,4.1c-2.4,7.3-7.7,13.2-16.5,16.4
			C462,75.1,447.4,68.8,441.9,54z M474.7,37.2c-3.1-5.9-8.3-8.7-14.1-6.5c-5.7,2.1-7.9,7.6-6.7,14.2L474.7,37.2z"/>
	</g>
	<g>
		<path class="st0" d="M0,47v-0.2c0-16.1,12.1-25.9,24.1-25.9c9.9,0,16.3,5.6,20.4,11.8v-32h4.8v70.8h-4.8V60.4
			c-4.3,6.5-10.6,12.2-20.4,12.2C12.1,72.7,0,63.1,0,47z M44.7,46.9v-0.2c0-12.7-9.9-21.2-20.2-21.2c-10.8,0-19.4,7.9-19.4,21.1v0.2
			c0,13,9,21.3,19.4,21.3C34.8,68.1,44.7,59.5,44.7,46.9z"/>
		<path class="st0" d="M62.6,57.1V57c0-10.3,8.8-16.1,21.6-16.1c6.9,0,11.6,0.9,16.4,2.1v-2.1c0-10-6.1-15.1-16.3-15.1
			c-6,0-11,1.6-15.5,4L67,25.5c5.4-2.5,10.8-4.3,17.6-4.3c6.7,0,12,1.8,15.6,5.4c3.3,3.3,5,7.9,5,14v30.8h-4.7v-8.2
			c-3.4,4.8-9.5,9.4-18.9,9.4C72.5,72.7,62.6,67.4,62.6,57.1z M100.7,53v-5.6c-4.2-1.1-9.7-2.2-16.8-2.2c-10.5,0-16.3,4.7-16.3,11.5
			v0.2c0,7.2,6.8,11.3,14.4,11.3C92.1,68.2,100.7,62,100.7,53z"/>
		<path class="st0" d="M123.9,58.8V26.4h-7.2V22h7.2V6.2h4.8V22H146v4.4h-17.4v31.9c0,7.1,4.2,9.6,9.9,9.6c2.4,0,4.5-0.5,7.3-1.7
			v4.5c-2.5,1.2-4.9,1.7-8.1,1.7C130.1,72.4,123.9,68.2,123.9,58.8z"/>
		<path class="st0" d="M155.4,57.1V57c0-10.3,8.8-16.1,21.6-16.1c6.9,0,11.6,0.9,16.4,2.1v-2.1c0-10-6.1-15.1-16.3-15.1
			c-6,0-11,1.6-15.5,4l-1.7-4.2c5.4-2.5,10.8-4.3,17.6-4.3c6.7,0,12,1.8,15.6,5.4c3.3,3.3,5,7.9,5,14v30.8h-4.7v-8.2
			c-3.4,4.8-9.5,9.4-18.9,9.4C165.3,72.7,155.4,67.4,155.4,57.1z M193.5,53v-5.6c-4.2-1.1-9.7-2.2-16.8-2.2
			c-10.5,0-16.3,4.7-16.3,11.5v0.2c0,7.2,6.8,11.3,14.4,11.3C184.9,68.2,193.5,62,193.5,53z"/>
		<path class="st0" d="M213.5,63.3h6.4v8.2h-6.4V63.3z"/>
	</g>
</g>
</svg>
